<?xml version="1.0" encoding="UTF-8"?>
<svg width="26px" height="26px" viewBox="0 0 26 26" version="1.1" xmlns="http://www.w3.org/2000/svg" xmlns:xlink="http://www.w3.org/1999/xlink">
    <!-- Generator: Sketch 52.6 (67491) - http://www.bohemiancoding.com/sketch -->
    <title>github</title>
    <desc>Created with Sketch.</desc>
    <g id="Page-1" stroke="none" stroke-width="1" fill="none" fill-rule="evenodd">
        <g id="Artboard" transform="translate(-1.000000, -1.000000)" fill="#F4F4F4">
            <path d="M13.999941,1 C7.62458742,1.00027108 2.19029256,5.74135949 1.16904401,12.1941694 C0.147795449,18.6469793 3.84102246,24.9069148 9.88911103,26.974484 C10.5390487,27.0911377 10.7827754,26.691287 10.7827754,26.3413661 C10.7827754,26.0248204 10.7665139,24.9751642 10.7665139,23.8588906 C7.50056397,24.4753342 6.65564495,23.0425416 6.39566987,22.2927966 C6.10719597,21.5636112 5.64989951,20.9174202 5.06329758,20.4100638 C4.60834119,20.1601488 3.95840348,19.5436918 5.04703614,19.5270575 C5.89066351,19.6209243 6.63661021,20.1308305 7.04560758,20.8932194 C7.40467396,21.5546364 8.0056926,22.0423284 8.71598976,22.2486385 C9.42628693,22.4549485 10.1874554,22.3629118 10.8314687,21.9928453 C10.8877417,21.3152393 11.1822525,20.681694 11.6601653,20.2101718 C8.76794249,19.8769518 5.74573217,18.7272895 5.74573217,13.6290772 C5.72746595,12.3043885 6.20417916,11.0227336 7.07810446,10.0469624 C6.68070888,8.89564668 6.72720693,7.6321622 7.208092,6.51483064 C7.208092,6.51483064 8.29669866,6.16493633 10.7827494,7.88103255 C12.90972,7.28120101 15.1551558,7.28120101 17.2821264,7.88103255 C19.7681121,6.14828866 20.8567838,6.51483064 20.8567838,6.51483064 C21.3377341,7.63214676 21.3842331,8.89565703 20.9867713,10.0469624 C21.8633283,11.0210635 22.3404577,12.3038374 22.3191436,13.6290772 C22.3191436,18.7439639 19.2806589,19.8769518 16.3884621,20.2101718 C17.0161622,20.8625341 17.33637,21.7624233 17.265878,22.6759996 C17.265878,24.4587532 17.2496165,25.8915458 17.2496165,26.3414194 C17.2496165,26.6913137 17.4933432,27.1078253 18.1432809,26.9745373 C24.1802218,24.89027 27.8564978,18.6292137 26.8282557,12.1831789 C25.8000135,5.737144 20.3698971,1.00339951 13.999941,1 Z" id="github"></path>
        </g>
    </g>
</svg>