<?xml version="1.0" encoding="UTF-8"?>
<svg width="186px" height="186px" viewBox="0 0 186 186" version="1.1" xmlns="http://www.w3.org/2000/svg" xmlns:xlink="http://www.w3.org/1999/xlink">
    <!-- Generator: Sketch 52.6 (67491) - http://www.bohemiancoding.com/sketch -->
    <title>she-ra</title>
    <desc>Created with Sketch.</desc>
    <g id="Page-1" stroke="none" stroke-width="1" fill="none" fill-rule="evenodd">
        <g id="Artboard" transform="translate(-171.000000, -427.000000)" fill="#B88B16">
            <g id="she-ra" transform="translate(171.000000, 427.000000)">
                <path d="M145.603125,18.01875 C142.115625,14.821875 138.3375,11.625 134.559375,9.009375 C134.26875,8.71875 133.978125,8.71875 133.6875,8.71875 C130.78125,6.103125 126.421875,4.940625 122.0625,6.39375 C121.771875,6.103125 121.48125,5.8125 120.9,5.8125 C120.31875,5.8125 118.865625,5.23125 117.4125,4.65 C112.7625,2.90625 104.625,0 93,0 C76.14375,0 71.203125,3.778125 65.1,6.684375 C60.740625,4.65 55.8,5.521875 52.3125,8.71875 C50.278125,9.009375 42.140625,16.275 40.10625,18.309375 C15.403125,35.45625 0.871875,63.9375 0.871875,93.871875 C0.871875,143.56875 41.26875,186 93,186 C143.56875,186 185.41875,144.73125 185.41875,93.58125 C185.41875,63.646875 170.596875,35.165625 145.603125,18.01875 Z M147.346875,105.496875 C149.671875,101.428125 150.253125,98.23125 150.54375,95.325 C158.390625,87.478125 163.9125,77.596875 166.528125,66.84375 C167.109375,82.246875 159.84375,96.196875 147.346875,105.496875 Z M151.70625,158.971875 C146.475,163.9125 140.371875,167.98125 133.6875,171.46875 C134.26875,159.84375 122.353125,160.715625 120.31875,138.628125 L121.48125,137.175 C124.096875,149.38125 142.40625,146.475 141.825,131.071875 C141.825,128.45625 140.953125,126.421875 139.790625,124.96875 C138.91875,123.80625 137.465625,123.225 136.303125,122.934375 C137.465625,119.7375 139.5,116.83125 141.534375,113.634375 C141.534375,113.634375 141.534375,113.634375 141.534375,113.634375 C147.05625,111.01875 151.996875,107.53125 156.065625,103.171875 C158.68125,127.003125 156.9375,145.89375 151.70625,158.971875 Z M93,181.640625 C81.084375,181.640625 68.878125,179.315625 57.253125,174.084375 C53.184375,164.49375 65.971875,165.65625 69.459375,142.696875 C83.409375,154.903125 103.171875,154.03125 116.540625,142.696875 C119.7375,165.65625 132.815625,164.49375 128.746875,174.084375 C117.121875,179.025 105.20625,181.640625 93,181.640625 Z M34.003125,158.971875 C28.771875,145.89375 27.31875,127.003125 29.0625,103.171875 C34.003125,108.1125 40.10625,112.471875 43.884375,113.634375 C45.91875,116.83125 47.953125,119.7375 49.115625,122.934375 C39.815625,124.678125 42.43125,144.73125 54.928125,144.73125 C58.996875,144.73125 62.775,142.115625 63.9375,137.175 L65.1,138.628125 C63.646875,159.84375 51.73125,160.715625 52.3125,171.46875 C45.628125,167.98125 39.815625,163.9125 34.003125,158.971875 Z M22.0875,52.021875 C22.959375,49.9875 23.83125,47.6625 24.703125,45.628125 C23.25,62.19375 28.771875,69.459375 37.78125,84.571875 C37.2,86.315625 36.61875,87.76875 36.0375,89.5125 C27.028125,79.340625 21.796875,65.68125 22.0875,52.021875 Z M41.559375,76.434375 C40.10625,79.05 40.10625,79.340625 39.815625,79.63125 C31.3875,65.1 25.284375,57.54375 31.096875,35.165625 C31.3875,34.584375 31.96875,34.003125 32.55,33.421875 C30.225,47.371875 36.61875,55.8 41.559375,76.434375 Z M44.175,70.33125 C41.559375,55.509375 31.096875,42.43125 39.234375,25.284375 C39.234375,25.284375 39.234375,24.99375 39.234375,24.99375 C41.85,22.378125 44.465625,19.7625 47.371875,17.4375 C37.78125,44.75625 49.40625,56.671875 44.175,70.33125 Z M19.471875,66.84375 C22.0875,77.596875 27.609375,87.76875 35.45625,95.325 C35.45625,98.23125 36.328125,101.428125 38.653125,105.496875 C32.259375,100.846875 27.31875,94.74375 23.83125,87.76875 C20.634375,81.084375 19.18125,74.109375 19.471875,66.84375 Z M127.875,51.440625 C114.796875,42.43125 102.590625,42.721875 93,52.3125 C83.7,42.721875 71.49375,42.43125 58.125,51.440625 C57.253125,46.5 56.090625,42.721875 55.8,38.3625 C75.5625,15.69375 110.4375,15.69375 130.2,38.3625 C129.909375,42.721875 128.746875,46.5 127.875,51.440625 Z M54.05625,82.246875 C54.346875,83.7 58.70625,87.76875 64.809375,89.5125 C68.00625,90.384375 71.49375,90.675 76.14375,90.965625 C76.434375,90.965625 77.30625,90.965625 77.8875,90.09375 C79.340625,88.35 76.725,83.11875 75.271875,81.375 C71.203125,75.853125 64.809375,76.434375 65.1,76.434375 C60.159375,76.434375 54.928125,79.63125 54.05625,81.084375 C54.346875,78.759375 54.6375,77.015625 55.509375,74.690625 C56.090625,74.98125 56.9625,74.690625 57.54375,74.4 C62.484375,70.9125 69.459375,70.9125 75.271875,77.30625 C77.596875,79.921875 80.503125,83.11875 84.8625,83.11875 C89.221875,83.11875 88.059375,78.46875 85.44375,78.759375 C81.95625,79.05 79.05,74.4 76.14375,71.784375 C70.9125,67.134375 63.35625,66.553125 57.253125,69.75 C58.70625,65.1 59.2875,61.321875 58.996875,56.671875 C81.95625,39.234375 89.803125,57.834375 93,57.834375 C96.196875,57.834375 104.334375,39.234375 127.003125,56.671875 C126.7125,61.321875 127.584375,65.1 128.746875,69.75 C122.0625,66.2625 114.215625,67.134375 107.240625,74.4 C105.20625,76.725 102.88125,79.05 100.55625,78.759375 C97.65,78.46875 97.359375,82.828125 99.975,83.11875 C106.078125,83.7 109.565625,77.596875 112.471875,75.271875 C116.83125,71.49375 123.225,71.203125 128.165625,74.690625 C128.746875,74.98125 129.328125,75.271875 130.2,74.98125 C130.78125,77.30625 131.071875,79.05 131.653125,81.375 C131.071875,79.921875 125.55,77.015625 120.609375,76.725 C114.796875,76.725 109.565625,80.2125 107.53125,88.640625 C107.240625,90.09375 108.1125,91.25625 109.565625,91.25625 C112.7625,91.25625 117.4125,90.965625 120.9,89.803125 C127.003125,88.059375 131.3625,83.990625 131.653125,82.5375 C133.396875,101.71875 123.225,106.36875 121.190625,131.071875 C118.865625,133.10625 111.01875,147.346875 92.709375,147.346875 C74.109375,147.346875 65.971875,132.234375 64.228125,131.071875 C62.775,106.36875 52.3125,101.1375 54.05625,82.246875 Z M59.86875,82.246875 C65.68125,79.340625 71.203125,80.503125 73.528125,86.60625 C68.5875,86.025 63.646875,85.153125 59.86875,82.246875 Z M126.13125,82.246875 C122.353125,85.44375 117.4125,86.315625 112.471875,86.60625 C114.796875,80.79375 120.028125,79.05 126.13125,82.246875 Z M138.3375,17.4375 C141.24375,19.7625 143.859375,22.378125 146.475,24.99375 C146.765625,25.865625 150.253125,32.840625 149.38125,41.85 C148.8,47.953125 141.534375,70.9125 141.534375,70.621875 C139.5,64.228125 148.21875,44.465625 138.3375,17.4375 Z M149.9625,89.5125 C149.671875,87.76875 149.090625,86.025 148.21875,84.571875 C157.228125,69.16875 162.459375,61.903125 161.00625,45.628125 C162.16875,47.6625 163.040625,49.9875 163.9125,52.021875 C164.203125,65.68125 158.971875,79.340625 149.9625,89.5125 Z M144.440625,76.434375 C144.440625,76.14375 151.415625,52.603125 151.125,54.05625 C153.45,46.5 154.903125,40.978125 153.45,33.13125 C154.03125,33.7125 154.321875,34.29375 154.903125,34.875 C160.425,56.671875 154.903125,64.228125 146.184375,79.340625 C145.89375,79.340625 144.73125,77.015625 144.440625,76.434375 Z M132.525,14.240625 C138.3375,27.028125 139.209375,39.525 136.884375,52.89375 C135.140625,63.35625 135.140625,67.715625 140.08125,77.8875 C142.696875,83.7 146.475,89.5125 145.89375,95.90625 C145.3125,101.1375 142.40625,105.496875 138.91875,110.146875 C136.0125,114.215625 128.165625,125.259375 132.525,127.584375 C134.26875,128.45625 135.140625,126.421875 136.59375,128.165625 C137.175,128.746875 137.465625,129.909375 137.465625,131.653125 C137.75625,139.209375 131.3625,142.40625 127.875,140.08125 C121.48125,136.0125 129.0375,112.7625 132.234375,105.20625 C141.24375,84.28125 131.653125,70.040625 131.071875,59.578125 C131.071875,48.534375 142.40625,29.0625 124.96875,10.171875 C128.165625,9.590625 131.071875,11.334375 132.525,14.240625 Z M93,4.359375 C106.659375,4.359375 114.796875,8.71875 119.15625,9.88125 C119.7375,11.334375 128.746875,17.4375 130.2,31.678125 C109.275,11.625 76.434375,11.625 55.8,31.678125 C56.671875,23.83125 60.159375,16.275 65.971875,11.04375 C69.459375,10.171875 73.2375,4.359375 93,4.359375 Z M61.03125,10.171875 C49.696875,22.66875 51.440625,38.071875 51.440625,37.78125 C52.3125,50.859375 57.54375,52.89375 52.3125,70.33125 C43.59375,99.975 58.415625,103.4625 60.159375,131.3625 C61.03125,145.3125 47.953125,141.534375 47.953125,131.3625 C47.953125,129.61875 48.534375,127.29375 50.278125,127.29375 C50.859375,127.29375 51.440625,128.165625 52.89375,127.584375 C57.253125,125.259375 49.40625,114.215625 46.5,110.146875 C35.746875,95.034375 38.94375,92.41875 45.628125,77.8875 C52.021875,65.1 49.9875,61.6125 48.24375,49.40625 C46.5,37.78125 48.24375,25.575 53.184375,14.53125 C54.6375,11.334375 57.834375,9.590625 61.03125,10.171875 Z M21.50625,42.721875 C20.34375,45.046875 19.18125,47.371875 18.309375,49.696875 C17.728125,50.278125 17.728125,50.859375 17.728125,51.440625 C13.36875,64.51875 14.240625,78.178125 19.7625,89.803125 C21.215625,93 22.959375,95.90625 25.284375,98.521875 C23.25,120.31875 23.83125,138.3375 27.609375,152.2875 C13.659375,136.59375 5.23125,116.25 5.23125,93.871875 C5.23125,75.271875 11.04375,57.54375 21.50625,42.721875 Z M158.390625,152.2875 C161.878125,138.3375 162.75,120.31875 160.715625,98.521875 C170.596875,85.734375 173.2125,69.75 169.725,55.8 C169.434375,54.346875 168.853125,52.89375 168.271875,51.440625 C168.271875,51.440625 168.271875,51.15 168.271875,51.15 C168.271875,50.56875 167.98125,50.278125 167.690625,49.696875 C166.81875,47.371875 165.65625,45.046875 164.49375,42.721875 C174.95625,57.54375 180.76875,75.271875 180.76875,93.58125 C181.059375,116.25 172.340625,136.884375 158.390625,152.2875 Z" id="Shape" fill-rule="nonzero"></path>
                <path d="M93,24.121875 C80.2125,24.121875 80.2125,45.628125 93,45.628125 C105.7875,45.628125 105.7875,24.121875 93,24.121875 Z M87.76875,34.875 C87.76875,26.446875 98.23125,26.446875 98.23125,34.875 C98.23125,43.303125 87.76875,43.303125 87.76875,34.875 Z" id="Shape" fill-rule="nonzero"></path>
                <path d="M99.39375,109.85625 C99.684375,108.69375 102.590625,105.20625 99.684375,104.04375 C96.778125,102.88125 96.196875,107.240625 95.325,108.1125 C94.453125,110.4375 98.23125,112.471875 99.39375,109.85625 Z" id="Path"></path>
                <path d="M86.60625,109.85625 C87.1875,111.01875 88.35,111.309375 89.5125,111.01875 C92.41875,109.85625 89.5125,106.36875 89.221875,105.20625 C88.640625,104.04375 87.478125,103.753125 86.315625,104.04375 C85.153125,104.625 84.8625,105.7875 85.153125,106.95 L86.60625,109.85625 Z" id="Path"></path>
                <path d="M71.784375,125.259375 C77.30625,127.003125 77.596875,132.234375 92.41875,132.234375 C92.709375,132.234375 94.1625,132.234375 93.871875,132.234375 C102.88125,132.234375 106.078125,130.490625 110.146875,127.584375 C114.796875,124.3875 114.50625,125.259375 115.959375,124.678125 C118.575,124.096875 117.99375,120.31875 115.66875,120.31875 C111.309375,120.31875 106.95,117.121875 101.71875,116.25 C98.8125,115.66875 96.196875,116.25 93.58125,117.121875 C84.28125,113.34375 77.8875,120.028125 71.49375,120.028125 C70.33125,120.028125 69.459375,120.9 69.459375,122.0625 C68.5875,124.96875 71.49375,124.96875 71.784375,125.259375 Z M92.128125,121.771875 C94.1625,122.64375 95.325,120.028125 100.55625,120.609375 C103.171875,120.9 105.496875,122.0625 108.403125,123.225 C104.625,125.840625 102.88125,127.875 93.58125,127.875 C93.290625,127.875 91.8375,127.875 92.128125,127.875 C82.828125,127.875 81.084375,125.840625 77.30625,123.225 C83.11875,121.48125 86.896875,119.446875 92.128125,121.771875 Z" id="Shape" fill-rule="nonzero"></path>
            </g>
        </g>
    </g>
</svg>