<?xml version="1.0" encoding="UTF-8"?>
<svg width="186px" height="186px" viewBox="0 0 186 186" version="1.1" xmlns="http://www.w3.org/2000/svg" xmlns:xlink="http://www.w3.org/1999/xlink">
    <!-- Generator: Sketch 52.6 (67491) - http://www.bohemiancoding.com/sketch -->
    <title>spidey</title>
    <desc>Created with Sketch.</desc>
    <g id="Page-1" stroke="none" stroke-width="1" fill="none" fill-rule="evenodd">
        <g id="Artboard" transform="translate(-279.000000, -176.000000)" fill="#EB0D15" fill-rule="nonzero">
            <path d="M372,176 C320.719068,176 279,217.719068 279,269 C279,320.280932 320.719068,362 372,362 C423.280932,362 465,320.280932 465,269 C465,217.719068 423.280932,176 372,176 Z M303.603175,329.51756 L307.887957,310.207535 C311.295038,304.577355 314.113659,300.657634 316.202191,298.031746 C316.639047,301.158349 317.087872,311.975327 308.584135,334.444444 C306.862641,332.858209 305.197002,331.222285 303.603175,329.51756 Z M316.865921,296.442799 C318.298729,294.565955 319.261976,293.525404 319.668433,293.111111 C320.082314,293.33271 320.960186,293.864547 322.04964,294.8338 C322.183269,295.654679 322.801307,299.092349 324.842871,305.934931 C326.06781,310.041251 326.765654,314.25548 326.919699,318.463928 C326.984658,320.252133 327.083025,322.344795 327.222222,324.603175 C326.147617,324.541512 323.332113,323.932598 321.134647,319.529528 L320.965754,319.192313 L318.126123,319.924552 L315.412698,315.332642 C318.00363,303.231427 317.133181,297.650994 316.865921,296.442799 Z M320.333333,292.311124 C320.54307,289.217926 320.886964,286.544575 321.29699,284.253968 C322.912533,285.788851 327.415269,290.791864 329.796069,300.788126 L329.86787,301.086901 L343.893806,304.123468 L343.952381,304.594087 L330.886324,310.825397 C330.712488,310.100917 330.559436,309.386201 330.442286,308.747643 C328.299566,297.050512 321.824168,293.08247 320.333333,292.311124 Z M320.914603,284.057143 C319.905504,284.756342 314.572535,288.80907 308.52381,300 C308.656792,299.060862 308.84062,298.161088 309.088983,297.360665 C311.292964,292.903039 315.096641,286.567135 321.31746,282.285714 C321.180567,282.846198 321.045629,283.4348 320.914603,284.057143 Z M320.333333,285.238095 C319.956484,287.484567 319.639039,290.065289 319.444117,293.052164 C318.649578,293.837263 314.74371,297.966807 308.591598,308.857143 C308.524767,307.434636 308.476501,305.219258 308.60088,302.937806 C313.62987,292.09411 318.378543,287.022058 320.333333,285.238095 Z M322.992628,346.253968 C318.172396,343.192496 313.658853,339.698884 309.507937,335.819226 C311.471521,330.46261 312.958675,325.759005 314.075488,321.650794 L316.56951,325.628403 L319.156117,325.077184 C319.854366,326.193066 322.520057,329.730853 327.971028,329.511902 C328.042396,330.362737 328.121479,331.228938 328.206349,332.100901 L322.992628,346.253968 Z M328.888431,318.546559 C328.731273,314.248723 328.02129,309.945097 326.77697,305.749545 C325.338514,300.897834 324.611891,297.744415 324.269841,296.063492 C326.447863,298.416012 328.969783,302.37226 330.125355,308.748573 C330.312095,309.775268 330.550605,310.985301 330.911144,312.166386 L333.701156,321.35453 C334.237342,323.122297 334.690326,324.919013 335.095238,326.727307 L333.213043,330.507937 L329.210142,325.036735 C329.062229,322.645618 328.956841,320.426259 328.888431,318.546559 Z M333.144892,351.805138 C331.040091,346.255826 329.854342,338.004443 329.190476,330.507937 L333.616889,336.531466 L335.917396,332.319641 C336.103509,333.488732 336.26276,334.659759 336.39323,335.834656 L336.742432,338.99159 C337.202917,343.164703 338.160342,347.277813 339.587846,351.214786 L341,355.111111 C338.317674,354.131707 335.700584,353.024554 333.144892,351.805138 Z M341.916959,355.401754 L340.234346,350.77013 C338.82896,346.901727 337.885618,342.862858 337.431274,338.763939 L337.08089,335.604517 C336.553389,330.837296 335.556142,326.103005 334.116102,321.533369 L331.210995,312.308864 C331.178267,312.206198 331.159015,312.101594 331.128212,311.998927 L345.230206,305.451504 L344.995333,303.595755 L330.623813,300.56612 C327.841918,289.491677 322.526478,284.586921 321.31746,283.589311 C321.483026,282.773789 321.654368,282.008631 321.831485,281.301587 C323.510248,282.529713 328.754457,287.198142 331.87326,299.297314 L331.946417,299.580132 L347.702146,303.247076 L347.888889,305.455378 C346.310236,306.131429 339.258276,309.209492 333.014895,312.78733 L332.666437,312.986852 L335.962357,322.51742 C337.005808,325.533496 337.741229,328.667736 338.147444,331.834906 L338.9849,338.349398 C339.421917,341.737399 340.199693,345.092469 341.3009,348.323564 L343.948031,356.095238 C343.262665,355.874408 342.590775,355.636144 341.916959,355.401754 Z M351.825397,357.740228 L354.868952,345.97752 L357.601651,344.285714 L359.698413,359.047619 C357.042921,358.699362 354.409778,358.282596 351.825397,357.740228 Z M356.548287,333.398088 L372.223027,344.221346 L372.490155,344.405646 L388.432024,333.398088 L390.834275,315.746032 L394.142857,318.015831 L389.456654,344.595766 L386.602191,342.679046 L386.392304,342.739186 C386.045037,342.840066 378.004458,345.241786 372.492063,354.126984 C366.979669,345.241786 358.93909,342.840066 358.591823,342.739186 L358.381936,342.679046 L355.527473,344.595766 L350.84127,318.015831 L354.149852,315.746032 L356.548287,333.398088 Z M354.777778,315.614635 L356.055111,314.763817 L358.425918,331.967546 L372.492063,341.368606 L386.558209,331.965634 L388.929016,314.761905 L390.206349,315.612723 L387.763934,333.053534 L372.492063,343.301587 L357.220193,333.055445 L354.777778,315.614635 Z M358.714286,344.285714 C360.880937,345.120992 367.172741,348.070267 371.507937,355.369866 L371.507937,360.031746 C367.844498,360.008809 364.237828,359.750772 360.69171,359.290127 L358.714286,344.285714 Z M372.492063,360.031746 L372.492063,355.369866 C376.819689,348.083646 383.117171,345.124815 385.285714,344.285714 L383.30829,359.290127 C379.762172,359.750772 376.155502,360.010721 372.492063,360.031746 Z M384.301587,359.047619 L386.398349,344.285714 L389.131048,345.97752 L392.174603,357.742132 C389.590222,358.284499 386.957079,358.701265 384.301587,359.047619 Z M395.864675,356.314137 C394.860231,356.588392 393.846184,356.839632 392.828296,357.079365 L389.918672,345.092711 L394.852549,317.609712 L388.457138,313.30027 L380.356285,307.799834 L380.356285,297.431858 L371.953907,292.142388 L363.645635,297.433776 L363.645635,307.799834 L355.544782,313.30027 L349.149372,317.609712 L354.083249,345.092711 L351.173625,357.079365 C350.155737,356.839632 349.14169,356.588392 348.137246,356.314137 L345.454246,348.416371 C343.902447,343.849935 342.969063,339.095549 342.675219,334.279791 C342.410184,329.92432 341.609318,325.607207 340.293745,321.449277 L338.01406,314.240024 L354.354045,305.912655 L354.004506,300.667296 L336.239478,296.338675 C335.703646,294.324918 332.235144,282.040995 325.08304,273.042374 L324.90827,272.82182 L324.629792,272.865931 C324.207272,272.934974 314.619918,274.641873 306.555556,287.74856 C306.789862,286.799217 307.0645,285.903574 307.362184,285.034781 C316.352249,272.491947 324.357074,271.742062 325.6496,271.709458 C332.918858,279.580374 337.251604,294.558897 337.293856,294.710408 L337.366837,294.96932 L342.515814,296.390458 L341.117659,275.096407 L341.044678,274.989007 C337.55313,269.820362 331.933619,267.509335 328.9683,266.600267 C329.872876,266.425741 330.468244,266.358616 330.639173,266.343273 C336.660077,267.267684 341.7572,273.379918 342.483165,274.28515 L343.898606,296.660877 L356.318761,299.984536 L356.6683,306.434315 L341.426866,314.913194 L343.045884,320.618841 C344.119468,324.393199 344.837752,328.292217 345.181529,332.204661 L345.483054,335.629967 C345.748089,338.641015 346.270477,341.648227 347.032933,344.563381 L349.85037,355.343698 L352.662046,345.284498 L348.085391,317.289428 L362.525958,307.537087 L362.525958,297.527751 L350.148055,293.879973 L349.712091,273.063471 L349.483547,272.927302 C349.427851,272.894698 344.015759,269.61515 341.524814,263.924846 C342.072169,263.834706 342.625285,263.717716 343.182243,263.589219 C345.137356,269.204727 350.280572,272.305914 351.528926,272.977167 L351.889988,292.880765 L363.002253,296.108532 L372.003841,290.306991 L380.999667,296.106614 L392.111933,292.878848 L392.472995,272.975249 C393.721348,272.305914 398.864564,269.204727 400.819678,263.587302 C401.376635,263.715799 401.929752,263.832788 402.477107,263.922928 C399.986162,269.613232 394.57407,272.892781 394.518374,272.925384 L394.289829,273.061553 L393.853866,293.878055 L381.475962,297.525834 L381.475962,307.539005 L395.91653,317.291346 L391.339874,345.286416 L394.15155,355.345615 L396.968988,344.565299 C397.731443,341.648227 398.253831,338.642933 398.518866,335.631885 L398.820392,332.206579 C399.164169,328.294135 399.884373,324.395117 400.956036,320.620759 L402.575054,314.915112 L387.33362,306.436232 L387.683159,299.986454 L400.103315,296.662794 L401.518755,274.287068 C402.2428,273.381836 407.334162,267.271519 413.362748,266.345191 C413.531756,266.360534 414.129045,266.427659 415.035541,266.602185 C412.070222,267.509335 406.448791,269.822279 402.955322,274.992842 L402.882341,275.100243 L401.484186,296.394293 L406.633163,294.973156 L406.706144,294.714244 C406.748396,294.562733 411.081142,279.58421 418.3504,271.713294 C419.644846,271.747815 427.649672,272.495783 436.639737,285.042453 C436.9355,285.909328 437.210138,286.80497 437.444444,287.752396 C429.382002,274.645709 419.792728,272.938809 419.370208,272.869766 L419.09173,272.825655 L418.91696,273.04621 C411.766776,282.04483 408.296354,294.330671 407.760522,296.342511 L389.995494,300.671131 L389.645955,305.916491 L405.98594,314.243859 L403.706255,321.453112 C402.390682,325.611043 401.587895,329.930074 401.324781,334.283626 C401.032858,339.099384 400.097553,343.853771 398.545754,348.420206 L395.864675,356.314137 Z M308.52381,282.375297 C313.188045,272.547824 321.717858,268.862766 326.607013,267.52381 C327.729708,267.773644 335.4723,269.694246 339.717192,276.02794 L341,296.063492 L337.694817,295.128565 C337.079145,293.028394 332.77707,278.986917 325.854102,271.429425 L325.724487,271.288893 L325.535783,271.27523 C325.186966,271.267423 317.633078,270.949274 308.52381,282.375297 Z M383.29553,286.222222 C382.764892,282.680024 382.04628,279.47509 381.349206,276.903689 C386.042705,275.742832 389.702341,274.136638 391.190476,273.428571 L390.996627,283.561381 C387.2665,283.747715 384.507576,285.357635 383.29553,286.222222 Z M391.190476,285.238095 L391.049082,292.225928 L383.891236,294.095238 C383.796972,291.992265 383.596151,289.942647 383.31746,287.988704 C384.065417,287.434902 387.040852,285.45888 391.190476,285.238095 Z M353.003373,283.561381 L352.809524,273.428571 C354.297659,274.136638 357.955337,275.740969 362.650794,276.903689 C361.955678,279.47509 361.235108,282.680024 360.70447,286.222222 C359.494382,285.357635 356.735458,283.747715 353.003373,283.561381 Z M360.68254,287.988704 C360.403849,289.942647 360.203028,291.992265 360.108764,294.095238 L352.950918,292.225928 L352.809524,285.238095 C356.959148,285.45704 359.934583,287.433062 360.68254,287.988704 Z M354.928172,243.904762 C355.378902,244.51375 355.84341,245.095928 356.323664,245.641719 C356.420109,246.292839 356.80195,249.188407 356.674013,252.761905 C355.717442,252.009287 355.087601,251.419449 354.823855,251.162831 C355.095474,248.223218 355.028553,245.578523 354.928172,243.904762 Z M359.698413,262.489696 C359.215603,264.245421 358.537658,265.96036 357.606238,267.52381 C356.529974,266.844049 355.588496,266.140982 354.777778,265.443742 C355.755467,263.98517 356.467612,262.342091 356.978585,260.634921 C357.773209,261.246705 358.676466,261.877912 359.698413,262.489696 Z M351.486957,220.285714 C352.806058,222.50725 354.485434,223.551314 355.983719,224.003742 C356.618489,224.195154 357.274227,224.289893 357.93759,224.289893 C358.854479,224.289893 359.778994,224.090747 360.68254,223.738859 C359.199504,225.749649 356.79386,229.225996 354.820928,233.079365 C352.281849,229.645555 350.758783,225.647176 349.857143,221.983285 C350.467132,221.19057 351.075214,220.626002 351.486957,220.285714 Z M350.113171,221.269841 C348.976958,216.643292 348.870791,212.768633 348.87305,211.428571 C349.2548,211.49325 349.541677,211.606438 349.717869,211.695371 C349.979898,215.272912 350.765986,217.894421 351.825397,219.816592 C351.400729,220.111688 350.786315,220.594757 350.113171,221.269841 Z M394.142857,221.981095 C393.241217,225.646366 391.718151,229.646073 389.179072,233.079365 C387.20614,229.226578 384.800496,225.750757 383.31746,223.740271 C384.2191,224.092106 385.145521,224.291221 386.06241,224.291221 C386.725773,224.291221 387.381511,224.196496 388.016281,224.005114 C389.514566,223.552754 391.195848,222.506915 392.514949,220.285714 C392.926692,220.62595 393.532868,221.1885 394.142857,221.981095 Z M392.174603,219.818315 C393.231756,217.895749 394.020103,215.27168 394.282132,211.693404 C394.456065,211.606474 394.745201,211.493263 395.12695,211.428571 C395.129209,212.77093 395.020783,216.646385 393.886829,221.269841 C393.213685,220.594619 392.599271,220.11145 392.174603,219.818315 Z M379.380952,229.856678 C380.496843,227.491746 382.944236,226.474491 383.785882,226.190476 C385.168451,228.13774 386.830939,230.673452 388.238095,233.376231 C387.275403,233.836595 383.89558,235.616791 380.852415,238.984127 C380.404167,235.442298 379.899179,232.410953 379.380952,229.856678 Z M380.365079,239.968254 C379.12563,239.667518 376.500004,239.176746 372.492063,239.176746 C368.484123,239.176746 365.858497,239.665673 364.619048,239.966409 C365.078532,236.427685 365.599796,233.418477 366.130713,230.864987 C366.860482,230.667571 369.125085,230.143589 372.492063,230.126984 C375.859042,230.143589 378.123644,230.669416 378.853414,230.864987 C379.386262,233.420322 379.907525,236.42953 380.365079,239.968254 Z M389.603054,216.794517 C388.691073,218.115119 387.375861,218.932278 385.696987,219.227206 C381.832373,219.888447 379.808679,215.949181 379.380952,214.99489 C382.972349,208.530888 389.337374,207.619803 390.984216,207.492063 C391.1896,208.912228 391.69835,213.768214 389.603054,216.794517 Z M380.974301,222.156307 C381.10674,222.304677 382.035854,223.375197 383.31746,225.024173 C382.257945,225.39416 380.23264,226.323822 378.875645,228.15873 C377.402511,221.806979 375.937527,218.649885 375.444444,217.708954 L375.872326,217.333333 C377.455487,219.511935 379.405403,221.106446 380.974301,222.156307 Z M378.396825,229.142857 C377.380554,228.88696 375.383246,228.502167 372.634861,228.475629 L372.634861,228.469942 C372.584789,228.469942 372.542135,228.471838 372.492063,228.471838 C372.443846,228.471838 372.399338,228.469942 372.349266,228.469942 L372.349266,228.475629 C369.599027,228.502167 367.603573,228.88696 366.587302,229.142857 C367.952221,222.499009 369.328268,219.196988 369.734406,218.31746 L375.249721,218.31746 C375.655859,219.196988 377.031906,222.499009 378.396825,229.142857 Z M365.125505,228.15873 C363.768159,226.323822 361.74233,225.39416 360.68254,225.024173 C361.96244,223.375197 362.893832,222.304677 363.026306,222.156307 C364.59561,221.106446 366.546031,219.511935 368.127563,217.333333 L368.555556,217.708954 C368.064384,218.649885 366.601058,221.806979 365.125505,228.15873 Z M358.303013,219.227176 C356.624139,218.932248 355.310811,218.115092 354.396946,216.794493 C352.30165,213.766319 352.8104,208.910346 353.015784,207.492063 C354.660742,207.616046 361.01823,208.515857 364.619048,214.994871 C364.191321,215.951037 362.169512,219.888414 358.303013,219.227176 Z M360.214118,226.190476 C361.055764,226.476389 363.503157,227.491934 364.619048,229.85721 C364.100821,232.411855 363.595833,235.441784 363.147585,238.984127 C360.10442,235.618158 356.724597,233.837704 355.761905,233.375417 C357.169061,230.674102 358.831549,228.138022 360.214118,226.190476 Z M364.475139,240.855498 C365.398605,240.597356 368.095436,239.968254 372.492063,239.968254 C376.888691,239.968254 379.585522,240.597356 380.508988,240.855498 C380.830362,243.547825 381.118824,246.494469 381.349206,249.760445 C378.702711,251.102784 375.748394,251.777778 372.492063,251.777778 C369.235733,251.777778 366.283352,251.102784 363.634921,249.760445 C363.867239,246.496381 364.153765,243.547825 364.475139,240.855498 Z M389.176145,251.161262 C388.912399,251.419739 388.282558,252.00945 387.325987,252.761905 C387.19805,249.187265 387.579891,246.292323 387.676336,245.641344 C388.158558,245.09567 388.623066,244.513619 389.071828,243.904762 C388.971447,245.580075 388.904526,248.224199 389.176145,251.161262 Z M387.018293,260.634921 C387.529057,262.34307 388.24091,263.987164 389.222222,265.446855 C388.411836,266.143702 387.470742,266.844432 386.394918,267.52381 C385.461868,265.961241 384.7842,264.243386 384.301587,262.48671 C385.323117,261.877211 386.223993,261.24636 387.018293,260.634921 Z M391.190476,272.870406 C389.727947,273.607834 386.26114,275.214652 381.833352,276.380952 C381.525148,275.218533 381.226517,274.160906 380.968086,273.314804 C380.74794,272.5929 380.552681,271.890403 380.365079,271.191787 C382.771361,270.506755 384.821582,269.559742 386.557857,268.507937 C387.719841,270.273883 389.237885,271.78367 391.190476,272.870406 Z M384.955194,261.619048 C384.612093,259.845551 384.41138,258.090151 384.301587,256.449365 C385.157623,255.878307 385.921022,255.293174 386.591784,254.730159 C386.705007,256.336762 386.914299,258.013742 387.253968,259.662571 C386.5935,260.299984 385.830101,260.967559 384.955194,261.619048 Z M386.104614,253.915179 C385.329472,254.489102 384.409501,255.105764 383.381419,255.714286 C383.212112,252.48037 383.424256,249.958771 383.49769,249.24442 C384.466617,248.544315 385.390668,247.748556 386.269841,246.857143 C386.116853,248.420168 385.949585,250.996717 386.104614,253.915179 Z M384.249578,262.603175 C384.723048,264.420333 385.373833,266.20135 386.269841,267.831773 C384.63439,268.865847 382.702785,269.799525 380.435413,270.47619 C379.967602,268.524502 379.620517,266.655137 379.380952,264.837979 C381.197491,264.243637 382.82351,263.464568 384.249578,262.603175 Z M367.003992,258.666667 C368.66088,259.070074 370.450082,259.313995 372.340001,259.338387 L372.340001,259.351521 C372.391347,259.351521 372.440718,259.345893 372.492063,259.345893 C372.543409,259.345893 372.59278,259.351521 372.644126,259.351521 L372.644126,259.338387 C374.534045,259.313995 376.323247,259.068198 377.980135,258.666667 C378.027531,260.118934 378.138122,261.747575 378.355354,263.545085 C378.367203,263.6389 378.384976,263.734592 378.396825,263.828408 C376.597749,264.284352 374.628837,264.5658 372.492063,264.571429 C370.357265,264.5658 368.388353,264.282476 366.587302,263.826532 C366.599151,263.734592 366.618899,263.6389 366.628773,263.546961 C366.84798,261.747575 366.956596,260.118934 367.003992,258.666667 Z M366.587302,251.777778 C368.287694,252.277147 370.090072,252.533851 372,252.533851 C373.909928,252.533851 375.712306,252.277147 377.412698,251.777778 C377.286606,252.83267 377.106739,254.94045 377.138262,257.892544 C375.543565,258.359825 373.822776,258.652628 372,258.666667 C370.177224,258.652628 368.456435,258.35782 366.861738,257.890539 C366.893261,254.94045 366.713394,252.830665 366.587302,251.777778 Z M372.439709,266.288143 L372.439709,266.293651 C372.456843,266.293651 372.473977,266.291815 372.491112,266.291815 C372.508246,266.291815 372.52538,266.293651 372.542514,266.293651 L372.542514,266.288143 C374.627172,266.278962 376.55191,265.999882 378.318634,265.555556 C378.564224,267.206172 378.914522,268.899017 379.380952,270.66714 C377.336275,271.146352 375.059334,271.449301 372.491112,271.460317 C369.924793,271.449301 367.647852,271.144516 365.603175,270.665304 C366.071509,268.899017 366.419903,267.206172 366.665493,265.555556 C368.430313,266.001718 370.355052,266.278962 372.439709,266.288143 Z M378.757093,263.587302 C378.753472,263.549994 378.74623,263.508955 378.740799,263.471647 C378.534415,261.619314 378.433033,259.938597 378.396825,258.453746 C379.928414,257.978071 381.329654,257.368088 382.578822,256.698413 C382.70736,258.23736 382.935468,259.871443 383.31746,261.518583 C381.990446,262.311374 380.466099,263.035146 378.757093,263.587302 Z M382.295639,255.803487 C381.137403,256.511283 379.830103,257.166721 378.397728,257.68254 C378.380594,254.552725 378.611899,252.448729 378.704421,251.735116 C379.98088,251.254203 381.193944,250.622035 382.333333,249.809524 C382.249378,251.038955 382.160283,253.222457 382.295639,255.803487 Z M365.295713,251.735116 C365.388194,252.448729 365.619398,254.552725 365.602272,257.68254 C364.172233,257.166721 362.865502,256.509344 361.706057,255.801548 C361.843067,253.222457 361.752298,251.040895 361.666667,249.809524 C362.807273,250.622035 364.019809,251.254203 365.295713,251.735116 Z M365.603175,258.454697 C365.566967,259.940353 365.467395,261.623847 365.259201,263.475317 C365.25558,263.512646 365.248339,263.549974 365.242907,263.587302 C363.533901,263.034847 362.009554,262.310683 360.68254,261.517462 C361.064532,259.871296 361.29264,258.236328 361.421178,256.698413 C362.670346,257.368451 364.071586,257.978764 365.603175,258.454697 Z M364.619048,264.839119 C364.379418,266.657205 364.032237,268.525515 363.564299,270.47619 C361.298192,269.79717 359.366058,268.863016 357.730159,267.828414 C358.624526,266.199168 359.273602,264.419252 359.747201,262.603175 C361.17366,263.465008 362.800124,264.244474 364.619048,264.839119 Z M363.634921,271.179625 C363.447319,271.88014 363.25206,272.584548 363.031914,273.308414 C362.773483,274.15487 362.474852,275.215372 362.166648,276.380952 C357.740774,275.211481 354.272053,273.600295 352.809524,272.860862 C354.756372,271.775063 356.268674,270.268955 357.428743,268.507937 C359.120989,269.529522 361.182695,270.483001 363.634921,271.179625 Z M360.620167,255.714286 C359.592246,255.10766 358.67038,254.490856 357.89536,253.914765 C358.050364,250.995633 357.885163,248.420527 357.730159,246.857143 C358.609194,247.748761 359.5331,248.542667 360.501874,249.244968 C360.573258,249.957448 360.787408,252.479627 360.620167,255.714286 Z M357.407831,254.730159 C358.076489,255.293502 358.841159,255.878978 359.698413,256.450369 C359.588684,258.090102 359.389801,259.846527 359.0469,261.619048 C358.172502,260.965167 357.407831,260.299214 356.746032,259.661428 C357.087219,258.013648 357.294674,256.3377 357.407831,254.730159 Z M354.711267,267.042707 C355.294725,267.506627 355.99194,267.986545 356.746032,268.462907 C355.608472,270.123066 354.114966,271.527269 352.142583,272.444444 C351.656368,272.188488 350.333496,271.440173 348.873016,270.19772 C351.133458,269.470734 352.841632,268.171402 354.118635,266.539683 C354.314956,266.706765 354.498433,266.873847 354.711267,267.042707 Z M361.214118,287.569737 C366.875334,286.383581 370.314283,288.403691 371.507937,289.310514 L363.039141,295.079365 L360.68254,294.356741 C360.765059,292.020862 360.953127,289.741659 361.214118,287.569737 Z M360.68254,287.487241 C361.222906,283.636441 361.96616,280.153244 362.685308,277.365079 C365.403208,278.011901 368.406357,278.475926 371.507937,278.522127 L371.507937,289.174603 C369.888848,288.111967 366.30114,286.462772 360.68254,287.487241 Z M363.634921,276.335158 C363.945009,275.265204 364.247247,274.291692 364.506308,273.512882 C364.739856,272.814137 364.945927,272.135407 365.144148,271.460317 C367.273552,271.940705 369.654167,272.251865 372.342907,272.273701 L372.342907,272.286438 C372.395897,272.286438 372.442999,272.280979 372.495989,272.280979 C372.547016,272.280979 372.592155,272.286438 372.643182,272.286438 L372.643182,272.273701 C375.316222,272.251865 377.6988,271.946164 379.841942,271.462137 C380.040163,272.135407 380.246234,272.814137 380.477819,273.512882 C380.73688,274.291692 381.039118,275.267024 381.349206,276.336978 C378.625139,276.935642 375.606685,277.365079 372.492063,277.365079 C369.379405,277.365079 366.358988,276.935642 363.634921,276.335158 Z M372.492063,278.522324 C375.593643,278.476115 378.598801,278.012011 381.314692,277.365079 C382.031831,280.153718 382.777094,283.637508 383.31746,287.486954 C377.702878,286.454274 374.113161,288.107768 372.492063,289.174603 L372.492063,278.522324 Z M382.785787,287.570294 C383.046825,289.742055 383.234926,292.019065 383.31746,294.356794 L380.960441,295.079365 L372.492063,289.310942 C373.685928,288.40621 377.127406,286.382202 382.785787,287.570294 Z M387.253968,267.792637 C388.245426,267.061403 389.115929,266.307446 389.872809,265.555556 C391.150158,267.462136 392.86001,268.982442 395.126984,269.831418 C393.670036,271.275296 392.348704,272.144928 391.863055,272.444444 C389.885637,271.374446 388.392037,269.732267 387.253968,267.792637 Z M391.190476,265.700585 C392.975466,263.948933 394.016405,262.363029 394.452573,261.619048 C395.104992,262.082388 395.795897,262.49299 396.543614,262.803767 C397.723833,263.293476 398.893057,263.687127 400.047619,264.003554 C399.261417,266.271284 397.903432,268.103926 396.532618,269.492063 C394.196004,268.814005 392.46416,267.450353 391.190476,265.700585 Z M390.144728,264.571429 C389.283843,263.195858 388.669444,261.634548 388.238095,260.01439 C389.350902,259.043399 390.130229,258.201137 390.576076,257.68254 C391.241223,258.87605 392.120232,259.926118 393.15873,260.794125 C392.814376,261.395478 391.859248,262.885067 390.144728,264.571429 Z M387.910485,258.666667 C387.556976,257.185056 387.354971,255.681763 387.253968,254.254357 C388.069758,253.665326 388.70685,253.146762 389.149708,252.761905 C389.178843,252.98776 389.206036,253.213615 389.240998,253.441278 C389.400272,254.510928 389.738241,255.529988 390.206349,256.485808 C389.895572,256.836335 389.11863,257.660255 387.910485,258.666667 Z M381.176508,248.825397 C380.9486,245.715802 380.67354,242.88557 380.365079,240.300021 C383.48898,236.568122 387.306426,234.554785 388.316291,234.063492 C389.074672,235.599023 389.734817,237.163454 390.206349,238.691278 C387.805464,243.347963 384.789623,246.731141 381.176508,248.825397 Z M389.222222,234.005491 C391.722222,230.703212 393.273504,226.839206 394.220391,223.238095 C394.573871,223.847107 394.89072,224.548794 395.126984,225.339373 C394.855922,226.239651 394.570208,227.122907 394.282662,227.994814 C393.920024,229.095574 393.564713,230.171746 393.264347,231.238461 C392.566545,233.718007 391.760684,235.968701 390.85409,238 C390.407204,236.664714 389.846764,235.321863 389.222222,234.005491 Z M395.126984,221.444125 C396.20048,216.797387 396.318546,212.814736 396.320362,211.428571 C396.527432,211.473467 396.745401,211.553906 396.972452,211.671758 C397.063272,213.35723 397.114131,215.09508 397.088702,216.928334 C397.057823,219.221772 396.663663,221.281377 396.145987,223.238095 C395.844464,222.553431 395.490265,221.967912 395.126984,221.444125 Z M395.116263,210.444444 C395.277086,205.830917 394.850481,202.037746 394.142857,199.03368 L394.896188,197.650794 C396.05581,201.293566 396.788827,205.555512 397.095238,210.432725 C396.286042,210.116302 395.595347,210.245215 395.116263,210.444444 Z M393.28542,198.634921 C391.546221,193.21371 388.941477,190.508172 388.238095,189.851547 C388.412421,189.42393 388.560394,189.055085 388.659719,188.793651 C390.925948,191.063466 392.752309,193.892628 394.142857,197.273032 L393.28542,198.634921 Z M393.15873,199.097801 L391.404186,201.717546 C388.481289,202.09774 385.922998,203.177793 383.723271,204.539683 C382.657652,203.436931 382.387722,202.124221 382.333333,201.730786 C385.340836,197.160892 387.343151,193.179258 388.447044,190.761905 C389.377697,191.677397 391.674116,194.293359 393.15873,199.097801 Z M387.82511,188.793651 C382.160201,183.7661 374.718677,183.225148 372.492063,183.188309 L372.492063,181.904762 C379.012163,182.209168 384.264087,184.159695 388.238095,187.740832 C388.171862,187.917271 388.031603,188.2876 387.82511,188.793651 Z M387.253968,190.308353 C386.253031,192.639987 384.332,196.716083 381.36576,201.445643 C377.20802,202.119941 373.568071,200.203115 372.492063,199.555334 L372.492063,184.857143 C374.607507,184.902601 381.920126,185.47083 387.253968,190.308353 Z M380.365079,202.394368 C378.746604,204.975409 376.840564,207.715542 374.611934,210.444444 L372.492063,210.444444 L372.492063,200.603175 C373.900395,201.400508 376.886648,202.727526 380.365079,202.394368 Z M375.679216,211.395319 L375.825506,211.217178 C378.230499,208.289737 380.2883,205.34844 382.037918,202.571429 C382.242723,203.244404 382.650382,204.085622 383.31746,204.87142 C378.199291,208.622266 375.372984,213.956582 375.203289,214.283173 L375.09601,214.489024 L375.185734,214.704772 C375.476362,215.409417 375.819654,216.058639 376.180501,216.680152 L375.501719,217.333333 L369.482408,217.333333 L368.803626,216.680152 C369.164473,216.05666 369.507765,215.409417 369.798393,214.704772 L369.888117,214.489024 L369.780838,214.283173 C369.611143,213.958562 366.784836,208.624245 361.666667,204.87142 C362.333745,204.085622 362.739454,203.244404 362.946209,202.571429 C364.695827,205.34844 366.751677,208.291716 369.158621,211.217178 L369.304911,211.395319 L372.004433,211.395319 L372.979694,211.395319 L375.679216,211.395319 Z M362.63424,201.446329 C359.669924,196.716033 357.746969,192.639303 356.746032,190.307307 C362.06255,185.463348 369.388644,184.904503 371.507937,184.857143 L371.507937,199.555726 C370.431929,200.201713 366.793905,202.118838 362.63424,201.446329 Z M371.507937,200.603175 L371.507937,210.444444 L369.388066,210.444444 C367.159436,207.715542 365.255239,204.975409 363.634921,202.394368 C367.117039,202.723783 370.099605,201.398637 371.507937,200.603175 Z M371.505988,183.193763 C369.275479,183.234469 361.820319,183.763638 356.172942,188.793651 C355.968397,188.285804 355.828138,187.917517 355.761905,187.739189 C359.733964,184.159061 364.987837,182.209083 371.507937,181.904762 L371.507937,183.193763 L371.505988,183.193763 Z M355.55068,190.761905 C356.654984,193.179922 358.66006,197.160757 361.666667,201.731907 C361.614273,202.123558 361.348273,203.430952 360.276212,204.539683 C358.075666,203.179311 355.514407,202.097069 352.592437,201.716771 L350.84127,199.105766 C352.318376,194.332169 354.597513,191.706029 355.55068,190.761905 Z M350.71458,198.634921 L349.857143,197.273032 C351.247691,193.892628 353.074052,191.063466 355.340281,188.793651 C355.441633,189.055085 355.587579,189.42393 355.761905,189.851547 C355.003793,190.564917 352.431481,193.280589 350.71458,198.634921 Z M349.857143,199.03368 C349.149519,202.037746 348.722914,205.830917 348.883737,210.444444 C348.404653,210.247168 347.713958,210.116302 346.904762,210.432725 C347.20948,205.555512 347.942497,201.293566 349.103812,197.650794 L349.857143,199.03368 Z M347.68035,211.428571 C347.68035,212.812865 347.798346,216.797387 348.873016,221.444125 C348.509952,221.966041 348.155964,222.553431 347.852806,223.238095 C347.335439,221.281377 346.941514,219.221772 346.910654,216.928334 C346.887055,215.09508 346.936068,213.35723 347.026835,211.671758 C347.255565,211.553906 347.475219,211.471597 347.68035,211.428571 Z M349.779609,223.238095 C350.726496,226.839206 352.277778,230.701321 354.777778,234.0036 C354.153236,235.319972 353.592796,236.662823 353.14591,238 C352.239316,235.968701 351.433455,233.718007 350.735653,231.238461 C350.433455,230.171746 350.079976,229.095574 349.717338,227.994814 C349.429792,227.122907 349.144078,226.23776 348.873016,225.339373 C349.10928,224.548794 349.426129,223.847107 349.779609,223.238095 Z M355.683709,234.063492 C356.693574,234.552858 360.505126,236.562342 363.634921,240.300021 C363.328425,242.88557 363.0514,245.715802 362.823492,248.825397 C359.208412,246.731141 356.192571,243.346037 353.793651,238.691278 C354.265183,237.163454 354.925328,235.599023 355.683709,234.063492 Z M354.850292,252.761905 C355.29315,253.14688 355.932185,253.665603 356.746032,254.254814 C356.645029,255.682656 356.443024,257.184602 356.089515,258.666667 C354.879428,257.661755 354.102485,256.837582 353.793651,256.486947 C354.259816,255.530835 354.597786,254.511464 354.759002,253.441486 C354.793964,253.211946 354.821157,252.987829 354.850292,252.761905 Z M355.761905,260.017476 C355.332369,261.636659 354.717969,263.196963 353.858897,264.571429 C352.144377,262.886006 351.187436,261.397461 350.84127,260.795788 C351.879768,259.927317 352.758777,258.874847 353.423924,257.68254 C353.869771,258.203254 354.649098,259.047806 355.761905,260.017476 Z M352.809524,265.723267 C351.533199,267.464451 349.803274,268.821218 347.470997,269.492063 C346.099178,268.103262 344.738377,266.271627 343.952381,264.000927 C345.109337,263.684348 346.280985,263.290509 347.463651,262.800565 C348.211082,262.491524 348.903419,262.080725 349.553518,261.619048 C349.983245,262.367154 351.009814,263.955701 352.809524,265.723267 Z M417.396171,267.52381 C422.286371,268.860723 430.812776,272.545529 435.47619,282.382088 C426.36662,270.950992 418.808345,271.269118 418.461495,271.276925 L418.272824,271.290587 L418.143232,271.431109 C411.221483,278.988085 406.920165,293.02665 406.304602,295.128629 L403,296.063492 L404.282582,276.02931 C408.532444,269.688243 416.288919,267.769723 417.396171,267.52381 Z M428.587302,315.332867 L425.873877,319.92562 L423.034246,319.193247 L422.865353,319.530524 C420.669742,323.930547 417.850527,324.537646 416.777778,324.603175 C416.916975,322.346308 417.015342,320.255188 417.080301,318.466655 C417.234346,314.257434 417.93219,310.042432 419.157129,305.935358 C421.183846,299.137775 421.809307,295.693692 421.948504,294.843753 C423.037958,293.870467 423.917686,293.334678 424.331567,293.111111 C424.738024,293.52548 425.701271,294.568149 427.132223,296.443411 C426.864963,297.651827 425.994514,303.233285 428.587302,315.332867 Z M423.666667,292.30781 C422.175832,293.079213 415.698545,297.045594 413.557714,308.74749 C413.440564,309.388048 413.289402,310.100864 413.113676,310.825397 L400.047619,304.593629 L400.106194,304.122976 L414.13213,301.086185 L414.203931,300.787388 C416.579063,290.815779 421.087467,285.792869 422.70301,284.253968 C423.113036,286.544743 423.458819,289.216338 423.666667,292.30781 Z M422.68254,282.285714 C428.903359,286.567135 432.707036,292.903039 434.911017,297.360665 C435.15938,298.161088 435.341253,299.058987 435.47619,300 C429.427465,288.810945 424.094496,284.758216 423.085397,284.059017 C422.954371,283.4348 422.819433,282.846198 422.68254,282.285714 Z M424.555929,293.05345 C424.360997,290.066084 424.041679,287.48688 423.666667,285.238095 C425.621559,287.022352 430.370482,292.095238 435.399736,302.938776 C435.524121,305.218659 435.473996,307.434402 435.409018,308.857143 C429.258439,297.970845 425.350511,293.836735 424.555929,293.05345 Z M400.051969,356.095238 L402.6991,348.323564 C403.800307,345.092469 404.578083,341.737399 405.0151,338.349398 L405.852556,331.834906 C406.258771,328.667736 406.994192,325.533496 408.037643,322.51742 L411.333563,312.986852 L410.985105,312.78733 C404.741724,309.209492 397.689764,306.129492 396.111111,305.455378 L396.297854,303.247076 L412.053583,299.580132 L412.12674,299.297314 C415.245543,287.198142 420.489752,282.53165 422.168515,281.301587 C422.345632,282.008631 422.516974,282.773789 422.68254,283.589311 C421.471597,284.588858 416.158082,289.491677 413.376187,300.56612 L399.004667,303.595755 L398.769794,305.451504 L412.871788,311.998927 C412.840985,312.103531 412.821733,312.208135 412.789005,312.310801 L409.883898,321.533369 C408.443858,326.101068 407.446611,330.837296 406.91911,335.604517 L406.568726,338.763939 C406.116307,342.862858 405.172966,346.901727 403.765654,350.77013 L402.083041,355.401754 C401.405375,355.638081 400.733485,355.876345 400.051969,356.095238 Z M410.853189,351.805138 C408.297497,353.024554 405.680407,354.133643 403,355.111111 L404.412154,351.214786 C405.839658,347.277813 406.797083,343.164703 407.257568,338.99159 L407.60677,335.834656 C407.73724,334.659759 407.894573,333.488732 408.082604,332.319641 L410.383111,336.531466 L414.809524,330.507937 C414.143739,338.004443 412.95799,346.255826 410.853189,351.805138 Z M414.791869,325.03042 L410.7876,330.507937 L408.904762,326.725612 C409.309813,324.916507 409.762952,323.117055 410.29932,321.350425 L413.090286,312.160091 C413.450948,310.976546 413.689539,309.765971 413.876343,308.738816 C415.028611,302.380881 417.551393,298.420929 419.730159,296.063492 C419.386143,297.750961 418.659271,300.901933 417.225873,305.738442 C415.982977,309.935876 415.270902,314.241432 415.11369,318.541195 C415.047106,320.419807 414.943532,322.63823 414.791869,325.03042 Z M421.0093,346.253968 L415.793651,332.100901 C415.878521,331.228938 415.959533,330.360817 416.028972,329.509981 C421.46837,329.69244 424.147563,326.191145 424.843883,325.077184 L427.43049,325.628403 L429.924512,321.650794 C431.041325,325.759005 432.528479,330.46261 434.492063,335.819226 C430.343076,339.698884 425.829533,343.194417 421.0093,346.253968 Z M435.415865,334.444444 C426.912128,311.975327 427.360953,301.158349 427.797809,298.031746 C429.886341,300.657634 432.704962,304.577355 436.112043,310.207535 L440.396825,329.51756 C438.802998,331.224196 437.137359,332.86012 435.415865,334.444444 Z M436.798869,309.790483 C436.84712,309.220517 437.186806,304.859118 436.771849,300.713383 C436.935901,301.094644 437.086444,301.443171 437.213826,301.720452 C437.346998,302.007361 437.657733,302.147927 437.964608,302.074755 C438.279203,301.991956 438.491507,301.701196 438.468346,301.381553 C438.003209,294.696001 436.914671,289.88017 436.084758,287.00338 C436.760269,288.016225 437.428059,289.079136 438.07848,290.249878 C438.219372,290.505977 438.520457,290.621511 438.800312,290.527159 C439.076306,290.430881 439.240359,290.1536 439.188248,289.866691 C435.254844,267.921058 415.091808,265.496775 413.655864,265.352358 C409.363475,263.62898 405.864328,263.293932 404.366624,263.149515 C401.913554,262.914596 399.340823,262.261831 396.71984,261.204697 C393.203323,259.789409 390.688493,256.544836 390.159664,252.738 C389.435902,247.546684 389.89718,242.765513 389.978241,242.006842 C391.865812,238.983709 393.446507,235.325141 394.704888,231.011881 C395.017553,229.937418 395.388119,228.857177 395.764475,227.749979 C396.908983,224.393724 398.094023,220.925786 398.151923,216.695326 C398.466519,193.717592 389.823839,181.686679 372.482508,180.897199 L371.517492,180.897199 C354.178091,181.686679 345.533481,193.717592 345.848077,216.695326 C345.905977,220.923861 347.091017,224.393724 348.235525,227.749979 C348.613811,228.857177 348.982447,229.937418 349.295112,231.011881 C350.553493,235.325141 352.134188,238.985634 354.021759,242.006842 C354.10282,242.765513 354.564098,247.546684 353.840336,252.738 C353.309577,256.546762 350.794747,259.789409 347.28016,261.204697 C344.659177,262.259905 342.086446,262.914596 339.633376,263.149515 C338.135672,263.293932 334.636525,263.630905 330.344136,265.352358 C328.908192,265.496775 308.745156,267.919133 304.811752,289.866691 C304.761571,290.151674 304.923694,290.430881 305.199688,290.527159 C305.479543,290.623437 305.778698,290.507903 305.91959,290.253729 C306.570011,289.081061 307.239731,288.018151 307.915242,287.005305 C307.083399,289.882095 305.996791,294.696001 305.531654,301.377702 C305.508493,301.699271 305.720797,301.990031 306.035392,302.07283 C306.348057,302.146001 306.653002,302.009286 306.786174,301.718526 C306.913556,301.441245 307.064099,301.094644 307.228151,300.711457 C306.811264,304.859118 307.15288,309.220517 307.201131,309.788558 L303.205966,328.539683 C302.669417,327.925428 302.156029,327.289993 301.634921,326.660334 L305.255659,309.66147 C305.190038,308.789191 305.043356,306.453484 305.114767,303.73459 C304.163262,303.291711 303.532141,302.330855 303.607413,301.240987 C303.848666,297.796156 304.250113,294.836567 304.69981,292.356443 C304.647699,292.341038 304.591729,292.346815 304.541548,292.329485 C303.377739,291.911638 302.692578,290.725492 302.918391,289.506611 C306.925136,267.152759 327.101683,263.815759 329.871278,263.463382 C334.31228,261.720748 337.902138,261.376072 339.451953,261.225878 C341.72167,261.010215 344.111048,260.399812 346.560258,259.413924 C349.437935,258.254736 351.497278,255.593609 351.933465,252.466496 C352.539495,248.122427 352.273151,244.053714 352.149629,242.6365 C350.281358,239.536345 348.704523,235.852745 347.448072,231.541411 C347.148918,230.515086 346.795722,229.48491 346.438666,228.427777 C345.218886,224.85971 343.985596,221.24543 343.923835,216.712656 C343.696092,200.002627 348.322377,179.944045 371.544513,178.952381 L372.465138,178.952381 C395.687274,179.945971 400.315488,200.002627 400.085815,216.714582 C400.025984,221.247355 398.790764,224.861636 397.596074,228.358457 C397.213928,229.48491 396.860733,230.517012 396.561578,231.541411 C395.305127,235.850819 393.728292,239.536345 391.860022,242.6365 C391.73457,244.053714 391.470155,248.126278 392.076185,252.466496 C392.514302,255.593609 394.571715,258.254736 397.447462,259.411999 C399.898602,260.399812 402.28798,261.00829 404.553837,261.223953 C406.105582,261.372221 409.69544,261.716897 414.138372,263.461456 C416.907967,263.815759 437.084514,267.152759 441.093189,289.52009 C441.317072,290.72164 440.633841,291.909712 439.462312,292.329485 C439.415992,292.346815 439.358091,292.341038 439.30984,292.356443 C439.759537,294.834641 440.160984,297.79423 440.402238,301.239061 C440.477509,302.323153 439.850249,303.282083 438.894883,303.728813 C438.968224,306.447707 438.821542,308.783414 438.753991,309.657619 L442.365079,326.606418 C441.842041,327.245705 441.347953,327.911949 440.803684,328.533906 L436.798869,309.790483 Z" id="spidey"></path>
        </g>
    </g>
</svg>