<?xml version="1.0" encoding="UTF-8"?>
<svg width="168px" height="182px" viewBox="0 0 168 182" version="1.1" xmlns="http://www.w3.org/2000/svg" xmlns:xlink="http://www.w3.org/1999/xlink">
    <!-- Generator: Sketch 52.6 (67491) - http://www.bohemiancoding.com/sketch -->
    <title>wonderwoman</title>
    <desc>Created with Sketch.</desc>
    <g id="Page-1" stroke="none" stroke-width="1" fill="none" fill-rule="evenodd">
        <g id="Artboard" transform="translate(-280.000000, -426.000000)" fill="#151E90">
            <g id="wonderwoman" transform="translate(279.000000, 426.000000)">
                <path d="M154.320833,115.45625 C154.889583,107.49375 163.420833,107.872917 163.989583,91.3791667 C163.989583,90.2416667 163.989583,89.1041667 163.989583,88.15625 C166.264583,67.3020833 157.922917,39.24375 149.58125,36.5895833 C124.366667,28.2479167 140.291667,0.947916667 85.88125,0.947916667 C62.3729167,0.947916667 46.4479167,14.4083333 31.28125,29.9541667 C21.9916667,39.6229167 14.9770833,54.6 14.7875,69.0083333 C14.7875,69.0083333 14.7875,69.0083333 14.7875,69.0083333 C14.7875,69.1979167 14.7875,69.1979167 14.7875,69.3875 C14.7875,72.6104167 14.9770833,75.8333333 15.7354167,78.8666667 C16.8729167,87.9666667 18.2,98.2041667 14.7875,99.3416667 C-0.758333333,104.460417 -1.70625,117.541667 7.9625,137.06875 C7.9625,137.258333 8.15208333,137.258333 8.15208333,137.447917 C8.15208333,136.310417 8.15208333,116.783333 14.5979167,117.73125 C29.1958333,120.195833 15.5458333,139.34375 12.1333333,143.704167 C25.025,162.283333 44.5520833,175.74375 67.3020833,180.8625 L67.3020833,159.81875 C72.6104167,163.989583 78.8666667,166.833333 86.2604167,166.833333 C93.275,166.833333 99.9104167,164.36875 105.597917,159.81875 L105.597917,181.052083 C133.466667,175.175 156.785417,156.595833 168.729167,131.570833 C166.833333,121.522917 153.752083,123.41875 154.320833,115.45625 Z M45.3104167,91.9479167 C45.6895833,86.0708333 47.0166667,81.1416667 48.5333333,77.1604167 C69.1979167,70.3354167 81.5208333,54.03125 86.0708333,47.0166667 C93.4645833,60.4770833 111.475,69.95625 122.660417,74.8854167 C125.125,79.8145833 127.210417,85.5020833 128.158333,91.7583333 C113.370833,86.45 98.9625,83.60625 84.9333333,83.60625 C65.7854167,83.60625 52.1354167,88.725 45.3104167,91.9479167 Z M86.45,163.23125 C78.8666667,163.23125 72.6104167,159.81875 67.4916667,155.079167 C67.3020833,154.889583 66.9229167,154.7 66.7333333,154.320833 C66.54375,154.13125 66.1645833,153.752083 65.975,153.5625 C65.7854167,153.372917 65.40625,152.99375 65.2166667,152.804167 C65.0270833,152.614583 64.8375,152.235417 64.4583333,152.045833 C64.0791667,151.666667 63.7,151.097917 63.3208333,150.71875 C63.13125,150.339583 62.9416667,150.15 62.5625,149.770833 C62.3729167,149.391667 62.1833333,149.202083 61.8041667,148.822917 C61.6145833,148.633333 61.425,148.254167 61.2354167,148.064583 C61.0458333,147.685417 60.85625,147.495833 60.4770833,147.116667 C60.2875,146.927083 60.0979167,146.547917 59.9083333,146.358333 C59.5291667,145.789583 59.15,145.220833 58.7708333,144.652083 C58.58125,144.4625 58.3916667,144.272917 58.3916667,143.89375 C58.2020833,143.514583 58.0125,143.135417 57.8229167,142.945833 C57.6333333,142.75625 57.6333333,142.566667 57.44375,142.1875 C57.0645833,141.429167 56.6854167,140.670833 56.1166667,139.9125 C56.1166667,139.9125 56.1166667,139.722917 55.9270833,139.722917 C55.7375,139.34375 55.5479167,138.964583 55.3583333,138.585417 C55.16875,138.395833 55.16875,138.20625 54.9791667,138.016667 C54.7895833,137.6375 54.6,137.258333 54.4104167,137.06875 C54.2208333,136.879167 54.2208333,136.689583 54.03125,136.5 C53.6520833,135.93125 53.4625,135.172917 53.2729167,134.604167 C53.2729167,134.414583 53.0833333,134.225 53.0833333,134.035417 C52.89375,133.65625 52.7041667,133.277083 52.7041667,133.0875 C52.7041667,132.897917 52.5145833,132.708333 52.5145833,132.51875 C52.325,132.139583 52.325,131.95 52.1354167,131.570833 C52.1354167,131.38125 51.9458333,131.38125 51.9458333,131.191667 C51.75625,130.622917 51.5666667,130.054167 51.1875,129.485417 C51.1875,129.295833 50.9979167,129.10625 50.9979167,128.916667 C50.8083333,128.727083 50.8083333,128.347917 50.61875,128.158333 C50.61875,127.96875 50.4291667,127.779167 50.4291667,127.589583 C50.2395833,127.210417 50.05,126.83125 50.05,126.2625 C50.05,126.072917 49.8604167,125.883333 49.8604167,125.69375 C49.8604167,125.504167 49.6708333,125.314583 49.6708333,125.125 C49.6708333,124.935417 49.48125,124.745833 49.48125,124.55625 C49.48125,124.366667 49.2916667,124.177083 49.2916667,123.9875 C49.2916667,123.797917 49.1020833,123.608333 49.1020833,123.41875 C49.1020833,123.229167 48.9125,123.039583 48.9125,122.85 C48.9125,122.660417 48.7229167,122.470833 48.7229167,122.28125 C48.7229167,122.091667 48.7229167,122.091667 48.5333333,121.902083 C48.5333333,121.7125 48.5333333,121.522917 48.34375,121.522917 C48.34375,121.522917 48.34375,121.333333 48.34375,121.333333 C48.34375,121.14375 48.34375,120.954167 48.1541667,120.764583 C48.1541667,120.764583 48.1541667,120.575 48.1541667,120.575 C48.1541667,120.575 48.1541667,120.385417 48.1541667,120.385417 C48.1541667,120.385417 48.1541667,120.385417 48.1541667,120.385417 C48.1541667,120.385417 48.1541667,120.385417 48.1541667,120.385417 C47.9645833,120.764583 47.775,121.14375 47.5854167,121.333333 C47.5854167,121.522917 47.3958333,121.522917 47.3958333,121.522917 C47.20625,121.7125 47.20625,121.902083 47.0166667,122.091667 C47.0166667,122.28125 46.8270833,122.28125 46.8270833,122.28125 C46.6375,122.470833 46.6375,122.470833 46.4479167,122.660417 C46.4479167,122.660417 46.2583333,122.85 46.2583333,122.85 C46.06875,123.039583 46.06875,123.039583 45.8791667,123.229167 C45.8791667,123.229167 45.6895833,123.41875 45.6895833,123.41875 C45.5,123.41875 45.5,123.608333 45.3104167,123.608333 C45.3104167,123.608333 45.1208333,123.608333 45.1208333,123.797917 C44.93125,123.797917 44.93125,123.9875 44.7416667,123.9875 C44.7416667,123.9875 44.5520833,123.9875 44.5520833,123.9875 C44.5520833,123.9875 44.3625,123.9875 44.3625,123.9875 C44.3625,123.9875 44.1729167,123.9875 44.1729167,123.9875 C44.1729167,123.9875 43.9833333,123.9875 43.9833333,123.9875 C43.79375,123.9875 43.6041667,123.9875 43.4145833,123.797917 C43.4145833,123.797917 43.4145833,123.797917 43.225,123.797917 C43.0354167,123.797917 42.8458333,123.608333 42.65625,123.608333 C42.65625,123.608333 42.65625,123.608333 42.4666667,123.608333 C42.2770833,123.41875 42.0875,123.229167 41.8979167,123.039583 C41.8979167,123.039583 41.8979167,123.039583 41.7083333,122.85 C41.51875,122.660417 41.3291667,122.470833 41.1395833,122.28125 C41.1395833,122.28125 41.1395833,122.28125 40.95,122.091667 C40.7604167,121.902083 40.5708333,121.522917 40.38125,121.333333 C40.38125,121.333333 40.38125,121.14375 40.1916667,121.14375 C40.0020833,120.954167 39.8125,120.575 39.8125,120.385417 C39.8125,120.385417 39.8125,120.195833 39.8125,120.195833 C39.6229167,119.816667 39.4333333,119.4375 39.4333333,119.058333 C39.4333333,119.058333 39.4333333,118.86875 39.24375,118.86875 C39.0541667,118.489583 39.0541667,118.110417 38.8645833,117.920833 C38.8645833,117.920833 38.8645833,117.920833 38.8645833,117.73125 C38.675,117.352083 38.675,116.972917 38.4854167,116.59375 C38.4854167,116.59375 38.4854167,116.404167 38.4854167,116.404167 C38.2958333,116.025 38.2958333,115.645833 38.10625,115.266667 C38.10625,115.266667 38.10625,115.266667 38.10625,115.077083 C37.9166667,114.697917 37.9166667,114.129167 37.7270833,113.75 C37.7270833,113.560417 37.7270833,113.560417 37.7270833,113.370833 C37.5375,112.991667 37.5375,112.6125 37.3479167,112.233333 C43.0354167,116.59375 48.34375,117.541667 49.2916667,106.545833 C49.8604167,101.2375 50.8083333,96.8770833 52.1354167,93.275 C59.3395833,90.6208333 70.3354167,87.5875 84.5541667,87.5875 C95.55,87.5875 106.925,89.29375 118.489583,92.70625 C120.00625,96.3083333 121.14375,101.047917 121.522917,106.735417 C122.660417,118.86875 129.10625,116.404167 135.552083,110.90625 C135.552083,110.90625 135.552083,111.095833 135.552083,111.095833 C135.552083,111.285417 135.552083,111.285417 135.3625,111.475 C135.172917,111.854167 135.172917,112.422917 134.983333,112.802083 C134.983333,112.991667 134.983333,112.991667 134.79375,113.18125 C134.604167,113.560417 134.604167,113.939583 134.414583,114.31875 C134.414583,114.508333 134.414583,114.508333 134.225,114.697917 C134.035417,115.077083 133.845833,115.45625 133.845833,116.025 C133.845833,116.214583 133.845833,116.214583 133.65625,116.404167 C133.466667,116.783333 133.277083,117.1625 133.277083,117.541667 C133.277083,117.541667 133.277083,117.73125 133.277083,117.73125 C133.0875,118.110417 132.897917,118.489583 132.708333,118.86875 C132.708333,118.86875 132.708333,119.058333 132.51875,119.058333 C132.329167,119.4375 132.139583,119.627083 131.95,120.00625 C131.95,120.00625 131.95,120.00625 131.95,120.195833 C131.760417,120.575 131.570833,120.764583 131.38125,121.14375 C131.38125,121.14375 131.191667,121.333333 131.191667,121.333333 C131.002083,121.522917 130.8125,121.902083 130.622917,122.091667 C130.622917,122.091667 130.622917,122.091667 130.622917,122.091667 C130.433333,122.28125 130.24375,122.470833 130.054167,122.660417 C130.054167,122.660417 129.864583,122.660417 129.864583,122.85 C129.675,123.039583 129.485417,123.039583 129.10625,123.229167 C129.10625,123.229167 129.10625,123.229167 129.10625,123.229167 C128.916667,123.229167 128.727083,123.41875 128.347917,123.41875 C128.347917,123.41875 128.158333,123.41875 128.158333,123.41875 C128.158333,123.41875 127.96875,123.41875 127.96875,123.41875 C127.779167,123.41875 127.779167,123.41875 127.589583,123.41875 C127.589583,123.41875 127.4,123.41875 127.4,123.41875 C127.210417,123.41875 127.210417,123.41875 127.020833,123.229167 C127.020833,123.229167 126.83125,123.229167 126.83125,123.039583 C126.641667,123.039583 126.641667,122.85 126.452083,122.85 C126.452083,122.85 126.2625,122.660417 126.2625,122.660417 C126.072917,122.660417 126.072917,122.470833 125.883333,122.470833 C125.883333,122.470833 125.69375,122.28125 125.69375,122.28125 C125.504167,122.091667 125.504167,122.091667 125.314583,121.902083 C125.314583,121.902083 125.125,121.7125 125.125,121.7125 C124.935417,121.522917 124.935417,121.333333 124.745833,121.14375 C124.745833,121.14375 124.55625,120.954167 124.55625,120.954167 C124.366667,120.575 124.177083,120.385417 123.9875,120.00625 C123.9875,120.00625 123.9875,120.00625 123.9875,120.00625 C123.9875,120.00625 123.9875,120.00625 123.9875,120.195833 C123.9875,120.195833 123.9875,120.385417 123.9875,120.385417 C123.9875,120.385417 123.9875,120.575 123.9875,120.575 C123.9875,120.575 123.9875,120.764583 123.9875,120.764583 C123.9875,120.954167 123.9875,121.14375 123.797917,121.333333 C123.797917,121.333333 123.797917,121.522917 123.797917,121.522917 C123.797917,121.7125 123.797917,121.902083 123.608333,122.091667 C123.608333,122.091667 123.608333,122.28125 123.608333,122.28125 C123.41875,123.039583 123.229167,123.797917 123.039583,124.745833 C123.039583,124.745833 123.039583,124.745833 123.039583,124.745833 C120.954167,131.95 116.214583,145.6 107.304167,154.889583 C107.304167,154.889583 107.114583,155.079167 107.114583,155.079167 C106.735417,155.458333 106.35625,155.8375 105.977083,156.216667 C100.66875,159.81875 94.2229167,163.23125 86.45,163.23125 Z" id="Shape" fill-rule="nonzero"></path>
                <polygon id="Path" points="76.4020833 140.860417 76.4020833 144.652083 87.01875 147.116667 97.825 144.652083 97.825 140.860417 87.01875 139.533333"></polygon>
                <circle id="Oval" cx="67.3020833" cy="117.1625" r="4.92916667"></circle>
                <circle id="Oval" cx="105.029167" cy="117.1625" r="4.92916667"></circle>
                <path d="M110.716667,107.304167 C115.45625,108.820833 119.058333,111.854167 119.247917,111.854167 L121.522917,109.2 C115.835417,104.460417 102.564583,98.2041667 92.70625,108.252083 L95.1708333,110.716667 C99.3416667,106.35625 104.460417,105.21875 110.716667,107.304167 Z" id="Path"></path>
                <path d="M78.6770833,110.527083 L81.1416667,108.0625 C71.2833333,98.2041667 58.0125,104.460417 52.325,109.010417 L54.6,111.664583 C54.6,111.664583 58.2020833,108.63125 63.13125,107.114583 C69.1979167,105.21875 74.50625,106.35625 78.6770833,110.527083 Z" id="Path"></path>
                <path d="M114.8875,130.433333 C114.697917,129.864583 114.697917,129.485417 114.697917,129.485417 C114.8875,129.675 114.8875,130.24375 114.8875,130.433333 Z" id="Path"></path>
                <path d="M86.0708333,76.5916667 L86.6395833,76.9708333 L90.43125,78.8666667 C90.43125,78.8666667 90.6208333,78.8666667 90.6208333,78.8666667 C90.6208333,78.8666667 90.6208333,78.8666667 90.8104167,78.8666667 C90.8104167,78.8666667 90.8104167,78.8666667 91,78.8666667 C91.1895833,78.6770833 91.1895833,78.6770833 91.1895833,78.4875 L90.2416667,74.3166667 L90.0520833,73.5583333 L90.6208333,72.9895833 L93.6541667,69.95625 C93.84375,69.7666667 93.84375,69.5770833 93.6541667,69.5770833 C93.6541667,69.3875 93.4645833,69.3875 93.275,69.3875 L89.1041667,68.6291667 L88.3458333,68.6291667 L87.9666667,68.0604167 L85.88125,64.26875 C85.88125,64.0791667 85.6916667,64.0791667 85.5020833,64.0791667 C85.5020833,64.0791667 85.5020833,64.0791667 85.3125,64.0791667 C85.1229167,64.0791667 85.1229167,64.26875 85.1229167,64.26875 L83.4166667,68.0604167 L83.0375,68.81875 L82.2791667,69.0083333 L78.1083333,69.7666667 C78.1083333,69.7666667 78.1083333,69.7666667 78.1083333,69.7666667 C77.91875,69.7666667 77.91875,69.95625 77.91875,70.1458333 C77.91875,70.3354167 77.91875,70.525 78.1083333,70.525 L81.33125,73.36875 L81.9,73.9375 L81.9,74.6958333 L81.33125,78.8666667 C81.33125,79.05625 81.33125,79.2458333 81.5208333,79.2458333 C81.5208333,79.2458333 81.7104167,79.2458333 81.7104167,79.2458333 C81.7104167,79.2458333 81.7104167,79.2458333 81.9,79.2458333 C81.9,79.2458333 81.9,79.2458333 81.9,79.2458333 L85.6916667,77.1604167 L86.0708333,76.5916667 Z" id="Path"></path>
            </g>
        </g>
    </g>
</svg>